<svg width="535" height="423" viewBox="0 0 535 423" fill="none" xmlns="http://www.w3.org/2000/svg">
<g clip-path="url(#clip0_107_2)">
<path d="M452.473 367.483C479.458 345.139 492.347 307.591 484.278 271.773C484.078 270.883 483.866 269.995 483.643 269.109C478.294 247.848 465.059 227.641 445.77 220.847C429.574 215.143 411.895 219.53 394.998 217.261C361.829 212.808 336.114 183.633 318.02 153.086C299.926 122.54 286.02 88.3468 261.978 63.1106C222.347 21.5132 157.699 12.5572 108.562 39.634C59.4256 66.711 28.1261 126.783 29.461 186.653C30.7958 246.523 63.4901 303.762 110.97 334.131C128.412 345.288 148.586 353.191 168.663 350.426C186.083 348.026 201.912 337.85 219.25 334.829C246.511 330.08 273.597 343.478 297.175 359.092C320.753 374.705 343.527 393.212 370.32 400.451C396.336 407.479 428.567 387.277 452.473 367.483Z" fill="white"/>
<path d="M413.701 40.8913C413.109 40.4625 412.511 40.056 411.919 39.6421C394.819 27.753 376.49 18.0944 357.312 10.8659L352.865 77.5545H324.674V1.13091C322.9 0.731754 321.111 0.354775 319.323 -3.05176e-05V77.5545H285.822C267.379 77.5545 249.692 69.59 236.651 55.413C223.61 41.2361 216.283 22.0081 216.283 1.95888V1.95881C214.488 2.38014 212.707 2.83104 210.925 3.3115V77.5545H183.639L179.403 13.963C159.694 22.18 140.983 32.9856 123.687 46.1394C123.388 46.3612 123.089 46.5903 122.797 46.8121C121.294 47.9578 119.812 49.1257 118.336 50.3084V304.726H198.754L197.333 283.327L189.514 165.834H346.984L339.164 283.327L337.743 304.726H417.27V43.4636C416.087 42.5914 414.897 41.734 413.701 40.8913ZM210.925 146.431H188.222L184.026 83.3792H210.925V146.431ZM319.323 146.431H281.192V145.182C281.192 144.581 281.083 143.987 280.871 143.432C280.659 142.877 280.349 142.373 279.958 141.949C279.567 141.525 279.103 141.188 278.593 140.959C278.082 140.73 277.535 140.613 276.983 140.614H260.405C259.853 140.613 259.307 140.731 258.797 140.961C258.287 141.19 257.824 141.527 257.434 141.951C257.043 142.375 256.734 142.879 256.523 143.433C256.312 143.988 256.203 144.582 256.203 145.182V146.431H216.283V83.3792H319.323V146.431ZM324.674 146.431V83.3792H352.478L348.282 146.431H324.674Z" fill="#3F3D56"/>
<path d="M-2.28882e-05 321.018C5.90689 328.627 12.2959 335.777 19.1202 342.417L515.88 343.156C522.704 336.516 529.093 329.366 535 321.757L-2.28882e-05 321.018Z" fill="#3F3D56"/>
<path d="M336.869 252.497V315.847C336.869 316.654 337.165 317.428 337.69 317.999C338.215 318.57 338.927 318.891 339.669 318.892H426.026C426.769 318.891 427.481 318.57 428.006 317.999C428.531 317.428 428.827 316.654 428.827 315.847V252.497C428.825 251.69 428.53 250.917 428.005 250.347C427.48 249.777 426.768 249.456 426.026 249.455H339.669C338.927 249.456 338.216 249.777 337.691 250.347C337.166 250.917 336.87 251.69 336.869 252.497Z" fill="#3F3D56"/>
<path d="M338.895 253.285V315.066C338.895 315.497 339.053 315.91 339.334 316.215C339.614 316.52 339.995 316.692 340.391 316.693H425.308C425.704 316.692 426.085 316.52 426.365 316.215C426.646 315.91 426.804 315.497 426.804 315.066V253.285C426.804 252.853 426.647 252.439 426.366 252.133C426.086 251.827 425.705 251.655 425.308 251.654H340.391C339.994 251.655 339.614 251.827 339.333 252.133C339.052 252.439 338.895 252.853 338.895 253.285Z" fill="#D1345B"/>
<path d="M335.063 328.202C335.221 328.418 335.422 328.592 335.651 328.711C335.88 328.83 336.13 328.891 336.384 328.889H428.852C429.105 328.889 429.355 328.827 429.583 328.709C429.811 328.591 430.012 328.418 430.171 328.205C430.331 327.991 430.444 327.742 430.504 327.475C430.563 327.208 430.567 326.929 430.515 326.66L429.08 319.248C429.02 318.946 428.892 318.665 428.707 318.43C428.522 318.195 428.286 318.015 428.02 317.905C427.828 317.823 427.623 317.781 427.417 317.781H337.814C337.607 317.781 337.402 317.823 337.21 317.905C336.944 318.015 336.708 318.195 336.523 318.43C336.338 318.665 336.21 318.946 336.151 319.248L334.715 326.66C334.664 326.929 334.669 327.207 334.729 327.474C334.789 327.741 334.903 327.989 335.063 328.202Z" fill="#2F2E41"/>
<path d="M424.244 320.973H426.428C426.611 320.973 426.76 320.812 426.76 320.612V319.477C426.76 319.277 426.611 319.116 426.428 319.116H424.244C424.061 319.116 423.912 319.277 423.912 319.477V320.612C423.912 320.812 424.061 320.973 424.244 320.973Z" fill="#3F3D56"/>
<path d="M418.548 320.973H420.732C420.915 320.973 421.064 320.812 421.064 320.612V319.477C421.064 319.277 420.915 319.116 420.732 319.116H418.548C418.365 319.116 418.216 319.277 418.216 319.477V320.612C418.216 320.812 418.365 320.973 418.548 320.973Z" fill="#3F3D56"/>
<path d="M412.852 320.973H415.036C415.219 320.973 415.368 320.812 415.368 320.612V319.477C415.368 319.277 415.219 319.116 415.036 319.116H412.852C412.669 319.116 412.52 319.277 412.52 319.477V320.612C412.52 320.812 412.669 320.973 412.852 320.973Z" fill="#3F3D56"/>
<path d="M407.156 320.973H409.34C409.523 320.973 409.672 320.812 409.672 320.612V319.477C409.672 319.277 409.523 319.116 409.34 319.116H407.156C406.973 319.116 406.824 319.277 406.824 319.477V320.612C406.824 320.812 406.973 320.973 407.156 320.973Z" fill="#3F3D56"/>
<path d="M401.46 320.973H403.644C403.828 320.973 403.976 320.812 403.976 320.612V319.477C403.976 319.277 403.828 319.116 403.644 319.116H401.46C401.277 319.116 401.128 319.277 401.128 319.477V320.612C401.128 320.812 401.277 320.973 401.46 320.973Z" fill="#3F3D56"/>
<path d="M395.764 320.973H397.948C398.132 320.973 398.28 320.812 398.28 320.612V319.477C398.28 319.277 398.132 319.116 397.948 319.116H395.764C395.581 319.116 395.432 319.277 395.432 319.477V320.612C395.432 320.812 395.581 320.973 395.764 320.973Z" fill="#3F3D56"/>
<path d="M390.068 320.973H392.252C392.436 320.973 392.584 320.812 392.584 320.612V319.477C392.584 319.277 392.436 319.116 392.252 319.116H390.068C389.885 319.116 389.736 319.277 389.736 319.477V320.612C389.736 320.812 389.885 320.973 390.068 320.973Z" fill="#3F3D56"/>
<path d="M384.372 320.973H386.556C386.74 320.973 386.888 320.812 386.888 320.612V319.477C386.888 319.277 386.74 319.116 386.556 319.116H384.372C384.189 319.116 384.04 319.277 384.04 319.477V320.612C384.04 320.812 384.189 320.973 384.372 320.973Z" fill="#3F3D56"/>
<path d="M378.676 320.973H380.86C381.044 320.973 381.192 320.812 381.192 320.612V319.477C381.192 319.277 381.044 319.116 380.86 319.116H378.676C378.493 319.116 378.344 319.277 378.344 319.477V320.612C378.344 320.812 378.493 320.973 378.676 320.973Z" fill="#3F3D56"/>
<path d="M372.98 320.973H375.164C375.348 320.973 375.496 320.812 375.496 320.612V319.477C375.496 319.277 375.348 319.116 375.164 319.116H372.98C372.797 319.116 372.648 319.277 372.648 319.477V320.612C372.648 320.812 372.797 320.973 372.98 320.973Z" fill="#3F3D56"/>
<path d="M367.284 320.973H369.469C369.652 320.973 369.8 320.812 369.8 320.612V319.477C369.8 319.277 369.652 319.116 369.469 319.116H367.284C367.101 319.116 366.953 319.277 366.953 319.477V320.612C366.953 320.812 367.101 320.973 367.284 320.973Z" fill="#3F3D56"/>
<path d="M361.589 320.973H363.773C363.956 320.973 364.105 320.812 364.105 320.612V319.477C364.105 319.277 363.956 319.116 363.773 319.116H361.589C361.405 319.116 361.257 319.277 361.257 319.477V320.612C361.257 320.812 361.405 320.973 361.589 320.973Z" fill="#3F3D56"/>
<path d="M355.893 320.973H358.077C358.26 320.973 358.409 320.812 358.409 320.612V319.477C358.409 319.277 358.26 319.116 358.077 319.116H355.893C355.709 319.116 355.561 319.277 355.561 319.477V320.612C355.561 320.812 355.709 320.973 355.893 320.973Z" fill="#3F3D56"/>
<path d="M350.197 320.973H352.381C352.564 320.973 352.713 320.812 352.713 320.612V319.477C352.713 319.277 352.564 319.116 352.381 319.116H350.197C350.013 319.116 349.865 319.277 349.865 319.477V320.612C349.865 320.812 350.013 320.973 350.197 320.973Z" fill="#3F3D56"/>
<path d="M344.501 320.973H346.685C346.868 320.973 347.017 320.812 347.017 320.612V319.477C347.017 319.277 346.868 319.116 346.685 319.116H344.501C344.317 319.116 344.169 319.277 344.169 319.477V320.612C344.169 320.812 344.317 320.973 344.501 320.973Z" fill="#3F3D56"/>
<path d="M338.805 320.973H340.989C341.172 320.973 341.321 320.812 341.321 320.612V319.477C341.321 319.277 341.172 319.116 340.989 319.116H338.805C338.621 319.116 338.473 319.277 338.473 319.477V320.612C338.473 320.812 338.621 320.973 338.805 320.973Z" fill="#3F3D56"/>
<path d="M424.311 324.069H426.495C426.679 324.069 426.827 323.908 426.827 323.708V322.573C426.827 322.373 426.679 322.212 426.495 322.212H424.311C424.128 322.212 423.979 322.373 423.979 322.573V323.708C423.979 323.908 424.128 324.069 424.311 324.069Z" fill="#3F3D56"/>
<path d="M418.615 324.069H420.799C420.983 324.069 421.131 323.908 421.131 323.708V322.573C421.131 322.373 420.983 322.212 420.799 322.212H418.615C418.432 322.212 418.283 322.373 418.283 322.573V323.708C418.283 323.908 418.432 324.069 418.615 324.069Z" fill="#3F3D56"/>
<path d="M412.919 324.069H415.103C415.287 324.069 415.435 323.908 415.435 323.708V322.573C415.435 322.373 415.287 322.212 415.103 322.212H412.919C412.736 322.212 412.587 322.373 412.587 322.573V323.708C412.587 323.908 412.736 324.069 412.919 324.069Z" fill="#3F3D56"/>
<path d="M407.223 324.069H409.407C409.591 324.069 409.739 323.908 409.739 323.708V322.573C409.739 322.373 409.591 322.212 409.407 322.212H407.223C407.04 322.212 406.891 322.373 406.891 322.573V323.708C406.891 323.908 407.04 324.069 407.223 324.069Z" fill="#3F3D56"/>
<path d="M401.527 324.069H403.712C403.895 324.069 404.043 323.908 404.043 323.708V322.573C404.043 322.373 403.895 322.212 403.712 322.212H401.527C401.344 322.212 401.195 322.373 401.195 322.573V323.708C401.195 323.908 401.344 324.069 401.527 324.069Z" fill="#3F3D56"/>
<path d="M395.831 324.069H398.016C398.199 324.069 398.348 323.908 398.348 323.708V322.573C398.348 322.373 398.199 322.212 398.016 322.212H395.831C395.648 322.212 395.5 322.373 395.5 322.573V323.708C395.5 323.908 395.648 324.069 395.831 324.069Z" fill="#3F3D56"/>
<path d="M390.136 324.069H392.32C392.503 324.069 392.652 323.908 392.652 323.708V322.573C392.652 322.373 392.503 322.212 392.32 322.212H390.136C389.952 322.212 389.804 322.373 389.804 322.573V323.708C389.804 323.908 389.952 324.069 390.136 324.069Z" fill="#3F3D56"/>
<path d="M384.44 324.069H386.624C386.807 324.069 386.956 323.908 386.956 323.708V322.573C386.956 322.373 386.807 322.212 386.624 322.212H384.44C384.256 322.212 384.108 322.373 384.108 322.573V323.708C384.108 323.908 384.256 324.069 384.44 324.069Z" fill="#3F3D56"/>
<path d="M378.744 324.069H380.928C381.111 324.069 381.26 323.908 381.26 323.708V322.573C381.26 322.373 381.111 322.212 380.928 322.212H378.744C378.56 322.212 378.412 322.373 378.412 322.573V323.708C378.412 323.908 378.56 324.069 378.744 324.069Z" fill="#3F3D56"/>
<path d="M373.048 324.069H375.232C375.415 324.069 375.564 323.908 375.564 323.708V322.573C375.564 322.373 375.415 322.212 375.232 322.212H373.048C372.864 322.212 372.716 322.373 372.716 322.573V323.708C372.716 323.908 372.864 324.069 373.048 324.069Z" fill="#3F3D56"/>
<path d="M367.352 324.069H369.536C369.719 324.069 369.868 323.908 369.868 323.708V322.573C369.868 322.373 369.719 322.212 369.536 322.212H367.352C367.168 322.212 367.02 322.373 367.02 322.573V323.708C367.02 323.908 367.168 324.069 367.352 324.069Z" fill="#3F3D56"/>
<path d="M361.656 324.069H363.84C364.023 324.069 364.172 323.908 364.172 323.708V322.573C364.172 322.373 364.023 322.212 363.84 322.212H361.656C361.472 322.212 361.324 322.373 361.324 322.573V323.708C361.324 323.908 361.472 324.069 361.656 324.069Z" fill="#3F3D56"/>
<path d="M355.96 324.069H358.144C358.327 324.069 358.476 323.908 358.476 323.708V322.573C358.476 322.373 358.327 322.212 358.144 322.212H355.96C355.777 322.212 355.628 322.373 355.628 322.573V323.708C355.628 323.908 355.777 324.069 355.96 324.069Z" fill="#3F3D56"/>
<path d="M350.264 324.069H352.448C352.631 324.069 352.78 323.908 352.78 323.708V322.573C352.78 322.373 352.631 322.212 352.448 322.212H350.264C350.081 322.212 349.932 322.373 349.932 322.573V323.708C349.932 323.908 350.081 324.069 350.264 324.069Z" fill="#3F3D56"/>
<path d="M344.568 324.069H346.752C346.935 324.069 347.084 323.908 347.084 323.708V322.573C347.084 322.373 346.935 322.212 346.752 322.212H344.568C344.385 322.212 344.236 322.373 344.236 322.573V323.708C344.236 323.908 344.385 324.069 344.568 324.069Z" fill="#3F3D56"/>
<path d="M338.872 324.069H341.056C341.239 324.069 341.388 323.908 341.388 323.708V322.573C341.388 322.373 341.239 322.212 341.056 322.212H338.872C338.689 322.212 338.54 322.373 338.54 322.573V323.708C338.54 323.908 338.689 324.069 338.872 324.069Z" fill="#3F3D56"/>
<path d="M377.035 327.785H399.155C399.338 327.785 399.487 327.623 399.487 327.424V326.288C399.487 326.089 399.338 325.927 399.155 325.927H377.035C376.852 325.927 376.703 326.089 376.703 326.288V327.424C376.703 327.623 376.852 327.785 377.035 327.785Z" fill="#3F3D56"/>
<path d="M353.6 265.17H351.666C351.08 265.17 350.604 265.687 350.604 266.324C350.604 266.962 351.08 267.478 351.666 267.478H353.6C354.186 267.478 354.661 266.962 354.661 266.324C354.661 265.687 354.186 265.17 353.6 265.17Z" fill="white"/>
<path d="M375.714 265.17H373.78C373.194 265.17 372.719 265.687 372.719 266.324C372.719 266.962 373.194 267.478 373.78 267.478H375.714C376.3 267.478 376.775 266.962 376.775 266.324C376.775 265.687 376.3 265.17 375.714 265.17Z" fill="white"/>
<path d="M381.979 265.17H380.046C379.459 265.17 378.984 265.687 378.984 266.324C378.984 266.962 379.459 267.478 380.046 267.478H381.979C382.565 267.478 383.041 266.962 383.041 266.324C383.041 265.687 382.565 265.17 381.979 265.17Z" fill="white"/>
<path d="M369.699 264.978H357.681C357.095 264.978 356.62 265.495 356.62 266.132C356.62 266.769 357.095 267.286 357.681 267.286H369.699C370.285 267.286 370.76 266.769 370.76 266.132C370.76 265.495 370.285 264.978 369.699 264.978Z" fill="white"/>
<path d="M399.184 264.978H387.167C386.58 264.978 386.105 265.495 386.105 266.132C386.105 266.769 386.58 267.286 387.167 267.286H399.184C399.77 267.286 400.245 266.769 400.245 266.132C400.245 265.495 399.77 264.978 399.184 264.978Z" fill="white"/>
<path d="M359.497 270.379H357.563C356.977 270.379 356.502 270.896 356.502 271.533C356.502 272.17 356.977 272.687 357.563 272.687H359.497C360.083 272.687 360.558 272.17 360.558 271.533C360.558 270.896 360.083 270.379 359.497 270.379Z" fill="white"/>
<path d="M381.611 270.379H379.677C379.091 270.379 378.616 270.896 378.616 271.533C378.616 272.17 379.091 272.687 379.677 272.687H381.611C382.197 272.687 382.672 272.17 382.672 271.533C382.672 270.896 382.197 270.379 381.611 270.379Z" fill="white"/>
<path d="M387.876 270.379H385.943C385.357 270.379 384.881 270.896 384.881 271.533C384.881 272.17 385.357 272.687 385.943 272.687H387.876C388.463 272.687 388.938 272.17 388.938 271.533C388.938 270.896 388.463 270.379 387.876 270.379Z" fill="white"/>
<path d="M375.596 270.187H363.578C362.992 270.187 362.517 270.703 362.517 271.341C362.517 271.978 362.992 272.495 363.578 272.495H375.596C376.182 272.495 376.657 271.978 376.657 271.341C376.657 270.703 376.182 270.187 375.596 270.187Z" fill="white"/>
<path d="M405.081 270.187H393.064C392.477 270.187 392.002 270.703 392.002 271.341C392.002 271.978 392.477 272.495 393.064 272.495H405.081C405.667 272.495 406.143 271.978 406.143 271.341C406.143 270.703 405.667 270.187 405.081 270.187Z" fill="white"/>
<path d="M365.394 275.588H363.46C362.874 275.588 362.399 276.104 362.399 276.742C362.399 277.379 362.874 277.896 363.46 277.896H365.394C365.98 277.896 366.455 277.379 366.455 276.742C366.455 276.104 365.98 275.588 365.394 275.588Z" fill="white"/>
<path d="M387.508 275.588H385.574C384.988 275.588 384.513 276.104 384.513 276.742C384.513 277.379 384.988 277.896 385.574 277.896H387.508C388.094 277.896 388.569 277.379 388.569 276.742C388.569 276.104 388.094 275.588 387.508 275.588Z" fill="white"/>
<path d="M393.773 275.588H391.84C391.254 275.588 390.778 276.104 390.778 276.742C390.778 277.379 391.254 277.896 391.84 277.896H393.773C394.36 277.896 394.835 277.379 394.835 276.742C394.835 276.104 394.36 275.588 393.773 275.588Z" fill="white"/>
<path d="M381.493 275.395H369.475C368.889 275.395 368.414 275.912 368.414 276.549C368.414 277.187 368.889 277.703 369.475 277.703H381.493C382.079 277.703 382.554 277.187 382.554 276.549C382.554 275.912 382.079 275.395 381.493 275.395Z" fill="white"/>
<path d="M410.978 275.395H398.961C398.374 275.395 397.899 275.912 397.899 276.549C397.899 277.187 398.374 277.703 398.961 277.703H410.978C411.564 277.703 412.04 277.187 412.04 276.549C412.04 275.912 411.564 275.395 410.978 275.395Z" fill="white"/>
<path d="M371.291 280.797H369.357C368.771 280.797 368.296 281.313 368.296 281.95C368.296 282.588 368.771 283.104 369.357 283.104H371.291C371.877 283.104 372.352 282.588 372.352 281.95C372.352 281.313 371.877 280.797 371.291 280.797Z" fill="white"/>
<path d="M393.405 280.797H391.471C390.885 280.797 390.41 281.313 390.41 281.95C390.41 282.588 390.885 283.104 391.471 283.104H393.405C393.991 283.104 394.466 282.588 394.466 281.95C394.466 281.313 393.991 280.797 393.405 280.797Z" fill="white"/>
<path d="M399.671 280.797H397.737C397.151 280.797 396.676 281.313 396.676 281.95C396.676 282.588 397.151 283.104 397.737 283.104H399.671C400.257 283.104 400.732 282.588 400.732 281.95C400.732 281.313 400.257 280.797 399.671 280.797Z" fill="white"/>
<path d="M387.39 280.604H375.372C374.786 280.604 374.311 281.121 374.311 281.758C374.311 282.395 374.786 282.912 375.372 282.912H387.39C387.976 282.912 388.451 282.395 388.451 281.758C388.451 281.121 387.976 280.604 387.39 280.604Z" fill="white"/>
<path d="M375.714 301.509H373.78C373.194 301.509 372.719 302.025 372.719 302.663C372.719 303.3 373.194 303.816 373.78 303.816H375.714C376.3 303.816 376.775 303.3 376.775 302.663C376.775 302.025 376.3 301.509 375.714 301.509Z" fill="white"/>
<path d="M381.979 301.509H380.046C379.459 301.509 378.984 302.025 378.984 302.663C378.984 303.3 379.459 303.816 380.046 303.816H381.979C382.565 303.816 383.041 303.3 383.041 302.663C383.041 302.025 382.565 301.509 381.979 301.509Z" fill="white"/>
<path d="M399.184 301.701H387.167C386.58 301.701 386.105 302.218 386.105 302.855C386.105 303.492 386.58 304.009 387.167 304.009H399.184C399.77 304.009 400.245 303.492 400.245 302.855C400.245 302.218 399.77 301.701 399.184 301.701Z" fill="white"/>
<path d="M353.6 301.509H351.666C351.08 301.509 350.604 302.025 350.604 302.663C350.604 303.3 351.08 303.816 351.666 303.816H353.6C354.186 303.816 354.661 303.3 354.661 302.663C354.661 302.025 354.186 301.509 353.6 301.509Z" fill="white"/>
<path d="M369.699 301.701H357.681C357.095 301.701 356.62 302.218 356.62 302.855C356.62 303.492 357.095 304.009 357.681 304.009H369.699C370.285 304.009 370.76 303.492 370.76 302.855C370.76 302.218 370.285 301.701 369.699 301.701Z" fill="white"/>
<path d="M359.497 296.3H357.563C356.977 296.3 356.502 296.817 356.502 297.454C356.502 298.091 356.977 298.608 357.563 298.608H359.497C360.083 298.608 360.558 298.091 360.558 297.454C360.558 296.817 360.083 296.3 359.497 296.3Z" fill="white"/>
<path d="M381.611 296.3H379.677C379.091 296.3 378.616 296.817 378.616 297.454C378.616 298.091 379.091 298.608 379.677 298.608H381.611C382.197 298.608 382.672 298.091 382.672 297.454C382.672 296.817 382.197 296.3 381.611 296.3Z" fill="white"/>
<path d="M387.876 296.3H385.943C385.357 296.3 384.881 296.817 384.881 297.454C384.881 298.091 385.357 298.608 385.943 298.608H387.876C388.463 298.608 388.938 298.091 388.938 297.454C388.938 296.817 388.463 296.3 387.876 296.3Z" fill="white"/>
<path d="M375.596 296.492H363.578C362.992 296.492 362.517 297.009 362.517 297.646C362.517 298.284 362.992 298.8 363.578 298.8H375.596C376.182 298.8 376.657 298.284 376.657 297.646C376.657 297.009 376.182 296.492 375.596 296.492Z" fill="white"/>
<path d="M365.394 291.091H363.46C362.874 291.091 362.399 291.608 362.399 292.245C362.399 292.882 362.874 293.399 363.46 293.399H365.394C365.98 293.399 366.455 292.882 366.455 292.245C366.455 291.608 365.98 291.091 365.394 291.091Z" fill="white"/>
<path d="M387.508 291.091H385.574C384.988 291.091 384.513 291.608 384.513 292.245C384.513 292.882 384.988 293.399 385.574 293.399H387.508C388.094 293.399 388.569 292.882 388.569 292.245C388.569 291.608 388.094 291.091 387.508 291.091Z" fill="white"/>
<path d="M393.773 291.091H391.84C391.254 291.091 390.778 291.608 390.778 292.245C390.778 292.882 391.254 293.399 391.84 293.399H393.773C394.36 293.399 394.835 292.882 394.835 292.245C394.835 291.608 394.36 291.091 393.773 291.091Z" fill="white"/>
<path d="M381.493 291.284H369.475C368.889 291.284 368.414 291.8 368.414 292.437C368.414 293.075 368.889 293.591 369.475 293.591H381.493C382.079 293.591 382.554 293.075 382.554 292.437C382.554 291.8 382.079 291.284 381.493 291.284Z" fill="white"/>
<path d="M371.291 285.882H369.357C368.771 285.882 368.296 286.399 368.296 287.036C368.296 287.674 368.771 288.19 369.357 288.19H371.291C371.877 288.19 372.352 287.674 372.352 287.036C372.352 286.399 371.877 285.882 371.291 285.882Z" fill="white"/>
<path d="M393.405 285.882H391.471C390.885 285.882 390.41 286.399 390.41 287.036C390.41 287.674 390.885 288.19 391.471 288.19H393.405C393.991 288.19 394.466 287.674 394.466 287.036C394.466 286.399 393.991 285.882 393.405 285.882Z" fill="white"/>
<path d="M399.671 285.882H397.737C397.151 285.882 396.676 286.399 396.676 287.036C396.676 287.674 397.151 288.19 397.737 288.19H399.671C400.257 288.19 400.732 287.674 400.732 287.036C400.732 286.399 400.257 285.882 399.671 285.882Z" fill="white"/>
<path d="M387.39 286.075H375.372C374.786 286.075 374.311 286.591 374.311 287.229C374.311 287.866 374.786 288.383 375.372 288.383H387.39C387.976 288.383 388.451 287.866 388.451 287.229C388.451 286.591 387.976 286.075 387.39 286.075Z" fill="white"/>
<path d="M343.32 362.553L334.243 346.955L362.734 322.264L374.494 308.101C376.022 306.261 377.967 304.889 380.136 304.122C382.304 303.356 384.619 303.221 386.851 303.732C389.082 304.243 391.151 305.381 392.851 307.034C394.55 308.686 395.821 310.794 396.537 313.148C397.597 316.636 397.369 320.435 395.901 323.744C394.433 327.052 391.84 329.612 388.669 330.882L370.074 338.329L343.32 362.553Z" fill="#FFB6B6"/>
<path d="M130.34 249.458V325.268H179.195V249.458C179.195 248.913 179.035 248.382 178.738 247.943C178.441 247.504 178.022 247.18 177.542 247.019C177.316 246.938 177.08 246.898 176.842 246.901H132.699C132.39 246.9 132.083 246.966 131.797 247.094C131.511 247.222 131.251 247.41 131.032 247.648C130.813 247.885 130.639 248.167 130.52 248.478C130.402 248.789 130.34 249.122 130.34 249.458ZM149.406 275.507C149.419 274.012 149.974 272.584 150.95 271.532C151.927 270.48 153.246 269.89 154.621 269.89C155.996 269.89 157.315 270.48 158.292 271.532C159.269 272.584 159.824 274.012 159.836 275.507V284.303C159.829 285.802 159.277 287.236 158.299 288.293C157.322 289.35 156 289.944 154.621 289.944C153.243 289.944 151.92 289.35 150.943 288.293C149.965 287.236 149.413 285.802 149.406 284.303V275.507Z" fill="#2F2E41"/>
<path d="M130.19 322.844V330.154C130.192 330.533 130.33 330.896 130.576 331.164C130.821 331.433 131.154 331.585 131.503 331.588H178.032C178.381 331.586 178.714 331.434 178.96 331.166C179.206 330.897 179.344 330.533 179.344 330.154V322.844H130.19Z" fill="#3F3D56"/>
<path d="M53.485 135.241V273.659C53.4863 275.423 54.1315 277.114 55.2788 278.361C56.4262 279.609 57.982 280.31 59.6046 280.311H248.291C249.914 280.31 251.47 279.609 252.617 278.361C253.764 277.114 254.41 275.423 254.411 273.659V135.241C254.407 133.478 253.761 131.789 252.614 130.544C251.467 129.298 249.913 128.598 248.291 128.595H59.6046C57.9834 128.598 56.4291 129.298 55.2821 130.544C54.1351 131.789 53.4889 133.478 53.485 135.241Z" fill="#3F3D56"/>
<path d="M57.9115 136.963V271.951C57.913 272.894 58.2581 273.797 58.8711 274.464C59.4841 275.13 60.3151 275.505 61.1821 275.507H246.721C247.588 275.505 248.419 275.13 249.032 274.464C249.645 273.797 249.99 272.894 249.991 271.951V136.963C249.991 136.019 249.647 135.114 249.034 134.446C248.42 133.778 247.589 133.402 246.721 133.4H61.1821C60.3141 133.402 59.4823 133.778 58.8691 134.446C58.256 135.114 57.9116 136.019 57.9115 136.963Z" fill="white"/>
<path d="M92.3443 331.093C92.5332 331.35 92.7732 331.558 93.0464 331.7C93.3196 331.842 93.6189 331.915 93.9218 331.913H204.305C204.607 331.913 204.905 331.839 205.178 331.698C205.45 331.557 205.69 331.351 205.88 331.096C206.07 330.841 206.206 330.544 206.277 330.225C206.348 329.906 206.353 329.574 206.291 329.252L204.577 320.404C204.506 320.044 204.353 319.708 204.132 319.428C203.912 319.148 203.63 318.932 203.313 318.8C203.083 318.702 202.838 318.652 202.592 318.653H95.6285C95.3818 318.652 95.1373 318.702 94.9077 318.8C94.5906 318.932 94.3087 319.148 94.0878 319.428C93.8669 319.708 93.714 320.044 93.643 320.404L91.9295 329.252C91.8686 329.573 91.8742 329.905 91.9459 330.224C92.0177 330.542 92.1537 330.839 92.3443 331.093Z" fill="#2F2E41"/>
<path d="M240.699 151.995H67.0916C66.9112 151.991 66.7395 151.91 66.6133 151.77C66.4871 151.629 66.4164 151.441 66.4164 151.245C66.4164 151.048 66.4871 150.86 66.6133 150.72C66.7395 150.58 66.9112 150.499 67.0916 150.494H240.699C240.88 150.499 241.051 150.58 241.178 150.72C241.304 150.86 241.375 151.048 241.375 151.245C241.375 151.441 241.304 151.629 241.178 151.77C241.051 151.91 240.88 151.991 240.699 151.995Z" fill="#3F3D56"/>
<path d="M78.9093 146.662C81.1439 146.662 82.9554 144.649 82.9554 142.166C82.9554 139.682 81.1439 137.669 78.9093 137.669C76.6748 137.669 74.8633 139.682 74.8633 142.166C74.8633 144.649 76.6748 146.662 78.9093 146.662Z" fill="#3F3D56"/>
<path d="M92.8865 146.662C95.121 146.662 96.9325 144.649 96.9325 142.166C96.9325 139.682 95.121 137.669 92.8865 137.669C90.6519 137.669 88.8405 139.682 88.8405 142.166C88.8405 144.649 90.6519 146.662 92.8865 146.662Z" fill="#3F3D56"/>
<path d="M106.864 146.662C109.098 146.662 110.91 144.649 110.91 142.166C110.91 139.682 109.098 137.669 106.864 137.669C104.629 137.669 102.818 139.682 102.818 142.166C102.818 144.649 104.629 146.662 106.864 146.662Z" fill="#3F3D56"/>
<path d="M232.283 138.781H222.356C222.159 138.786 221.973 138.874 221.835 139.027C221.698 139.18 221.621 139.385 221.621 139.598C221.621 139.811 221.698 140.016 221.835 140.169C221.973 140.322 222.159 140.41 222.356 140.415H232.283C232.48 140.412 232.669 140.324 232.807 140.172C232.946 140.019 233.024 139.813 233.024 139.598C233.024 139.383 232.946 139.177 232.807 139.024C232.669 138.872 232.48 138.784 232.283 138.781Z" fill="#3F3D56"/>
<path d="M232.283 141.849H222.356C222.159 141.854 221.972 141.942 221.835 142.094C221.697 142.247 221.621 142.452 221.621 142.666C221.621 142.879 221.697 143.084 221.835 143.237C221.972 143.39 222.159 143.478 222.356 143.482H232.283C232.481 143.48 232.669 143.393 232.808 143.24C232.947 143.087 233.025 142.881 233.025 142.666C233.025 142.451 232.947 142.244 232.808 142.091C232.669 141.939 232.481 141.851 232.283 141.849Z" fill="#3F3D56"/>
<path d="M232.283 144.916H222.356C222.159 144.921 221.973 145.01 221.835 145.162C221.698 145.315 221.621 145.52 221.621 145.733C221.621 145.947 221.698 146.151 221.835 146.304C221.973 146.457 222.159 146.545 222.356 146.55H232.283C232.48 146.547 232.669 146.459 232.807 146.307C232.946 146.154 233.024 145.948 233.024 145.733C233.024 145.518 232.946 145.312 232.807 145.16C232.669 145.007 232.48 144.919 232.283 144.916Z" fill="#3F3D56"/>
<path d="M471.612 326.052C471.912 327 472.48 327.821 473.235 328.396C473.991 328.971 474.894 329.271 475.816 329.253L493.829 328.75C494.758 328.73 495.656 328.384 496.389 327.763C497.122 327.143 497.651 326.281 497.896 325.307L500.445 295.676C501.35 296.121 502.334 296.341 503.327 296.319C504.189 296.296 505.039 296.088 505.827 295.707C506.616 295.327 507.328 294.781 507.922 294.102C508.517 293.422 508.982 292.622 509.292 291.747C509.602 290.871 509.751 289.938 509.729 289.001C509.707 288.063 509.516 287.14 509.166 286.282C508.816 285.425 508.314 284.651 507.689 284.005C507.064 283.359 506.328 282.853 505.523 282.516C504.718 282.179 503.859 282.017 502.997 282.041C502.6 282.039 502.204 282.084 501.816 282.174C501.395 281.678 500.882 281.283 500.311 281.016C499.74 280.748 499.124 280.613 498.502 280.62L470.794 281.398C470.564 281.407 470.335 281.438 470.111 281.49C469.503 281.613 468.927 281.876 468.42 282.262C467.914 282.647 467.49 283.146 467.176 283.725C466.862 284.304 466.666 284.949 466.6 285.618C466.535 286.286 466.602 286.961 466.797 287.599L471.612 326.052ZM500.968 293.664L502.782 286.602C502.988 285.787 502.993 284.926 502.796 284.108C502.884 284.108 502.961 284.062 503.049 284.062C504.293 284.034 505.496 284.544 506.395 285.479C507.294 286.414 507.815 287.698 507.844 289.05C507.873 290.402 507.408 291.711 506.55 292.691C505.693 293.67 504.513 294.24 503.269 294.276C502.465 294.303 501.67 294.091 500.968 293.664Z" fill="#2F2E41"/>
<path d="M470.111 281.49C470.701 285.159 477.338 287.739 485.318 287.29C492.657 286.923 498.657 284.122 499.756 280.802C499.35 280.671 498.927 280.609 498.502 280.62L470.794 281.398C470.564 281.407 470.335 281.438 470.111 281.49Z" fill="#3F3D56"/>
<path d="M486.781 309.769C486.817 309.759 486.852 309.743 486.883 309.72L490.795 306.937C490.843 306.903 490.881 306.857 490.908 306.803C490.935 306.749 490.949 306.689 490.949 306.628C490.949 306.566 490.935 306.506 490.908 306.452C490.882 306.398 490.843 306.352 490.795 306.319L486.73 303.424C486.692 303.397 486.65 303.378 486.606 303.369C486.563 303.36 486.517 303.36 486.474 303.37C486.43 303.38 486.388 303.399 486.351 303.426C486.314 303.453 486.282 303.488 486.258 303.529C486.233 303.57 486.216 303.615 486.208 303.663C486.2 303.711 486.2 303.76 486.209 303.808C486.219 303.855 486.236 303.9 486.262 303.94C486.287 303.981 486.319 304.015 486.357 304.041L489.989 306.627L486.511 309.102C486.444 309.15 486.394 309.222 486.371 309.306C486.349 309.39 486.354 309.48 486.386 309.56C486.418 309.64 486.476 309.705 486.548 309.743C486.62 309.781 486.703 309.791 486.781 309.769Z" fill="#D1345B"/>
<path d="M480.602 310.079C480.668 310.061 480.727 310.022 480.772 309.967C480.817 309.912 480.846 309.844 480.856 309.771C480.865 309.698 480.854 309.624 480.824 309.558C480.794 309.492 480.747 309.437 480.688 309.4L477.082 307.153L480.567 304.339C480.603 304.31 480.633 304.273 480.656 304.232C480.679 304.19 480.694 304.144 480.701 304.096C480.707 304.048 480.705 303.999 480.694 303.952C480.683 303.905 480.664 303.861 480.637 303.822C480.611 303.783 480.577 303.75 480.539 303.725C480.501 303.7 480.458 303.684 480.414 303.677C480.37 303.67 480.325 303.672 480.282 303.684C480.239 303.696 480.198 303.717 480.162 303.746L476.26 306.897C476.215 306.933 476.178 306.981 476.155 307.037C476.131 307.093 476.12 307.154 476.123 307.215C476.127 307.276 476.144 307.336 476.174 307.388C476.203 307.44 476.245 307.483 476.293 307.514L480.35 310.041C480.426 310.089 480.517 310.103 480.602 310.079Z" fill="#D1345B"/>
<path d="M486.392 312.209C486.425 312.2 486.456 312.185 486.485 312.166C486.523 312.141 486.556 312.108 486.583 312.068C486.609 312.029 486.628 311.985 486.639 311.938C486.649 311.89 486.651 311.841 486.644 311.793C486.637 311.745 486.622 311.699 486.599 311.658L481.053 301.747C481.006 301.663 480.931 301.603 480.843 301.58C480.756 301.557 480.663 301.573 480.586 301.624C480.509 301.675 480.454 301.757 480.433 301.852C480.411 301.947 480.426 302.048 480.472 302.132L486.018 312.043C486.056 312.11 486.112 312.163 486.18 312.192C486.247 312.222 486.321 312.228 486.392 312.209Z" fill="#D1345B"/>
<path d="M174.639 192.798H144.591C143.365 192.798 142.371 193.878 142.371 195.21V198.402C142.371 199.734 143.365 200.814 144.591 200.814H174.639C175.864 200.814 176.858 199.734 176.858 198.402V195.21C176.858 193.878 175.864 192.798 174.639 192.798Z" fill="#D1345B"/>
<path d="M192.153 208.831H127.076C125.851 208.831 124.857 209.912 124.857 211.244V214.435C124.857 215.768 125.851 216.848 127.076 216.848H192.153C193.379 216.848 194.373 215.768 194.373 214.435V211.244C194.373 209.912 193.379 208.831 192.153 208.831Z" fill="#E6E6E6"/>
<path d="M192.153 224.865H127.076C125.851 224.865 124.857 225.945 124.857 227.278V230.469C124.857 231.802 125.851 232.882 127.076 232.882H192.153C193.379 232.882 194.373 231.802 194.373 230.469V227.278C194.373 225.945 193.379 224.865 192.153 224.865Z" fill="#E6E6E6"/>
<path d="M197.67 278.556L197.817 279.062L197.825 279.079L202.262 293.743L207.366 310.641L216.968 342.397L217.061 347.33V347.347L217.775 387.029L215.797 392.409L218.023 401.229C218.023 401.229 216.999 387.896 211.508 395.553C208.397 399.904 204.759 404.356 201.773 408.53C206.125 410.444 210.546 412.176 215.037 413.725C216.007 414.062 216.984 414.382 217.961 414.703C218.171 414.77 218.38 414.838 218.59 414.905C233.477 419.691 248.868 422.381 264.385 422.907C265.192 422.933 265.983 422.949 266.751 422.966C267.022 422.975 267.286 422.983 267.55 422.983C268.418 422.992 269.279 423 270.148 423C271.901 423 273.646 422.972 275.384 422.916C288.244 422.522 301.029 420.642 313.523 417.308C313.438 411.701 313.205 405.149 312.872 398.15C312.717 394.718 309.234 390.999 309.024 387.407C308.877 384.709 312.003 382.171 311.84 379.43C310.785 362.557 309.467 369.034 308.489 357.086C308.388 355.914 308.295 354.792 308.21 353.721C307.582 346.048 307.147 341.25 307.147 341.25L311.32 312.656L317.875 267.763L317.371 266.86L316.804 266.557L282.233 247.955L280.356 242.727C279.809 241.221 278.86 239.927 277.631 239.012C276.402 238.097 274.95 237.602 273.46 237.592L250.687 237.491C249.505 237.485 248.339 237.786 247.285 238.368C246.231 238.95 245.321 239.797 244.629 240.838L238.462 250.122L197.67 278.556Z" fill="#3F3D56"/>
<path d="M222.22 335.331L217.061 347.33L213.54 355.526L207.482 390.006L204.449 393.505L201.851 381.117L174.654 387.681C173.762 382.293 174.415 387.864 173.865 381.953C174.02 381.784 174.183 381.615 174.345 381.447C174.78 381.008 175.144 380.595 175.137 380.199C174.826 359.81 175.757 325.111 183.529 304.089C184.747 300.657 186.352 297.402 188.307 294.4C188.463 294.173 188.61 293.945 188.757 293.717C192.341 288.261 194.606 282.89 197.817 279.07V279.062C197.837 279.044 197.855 279.025 197.871 279.003C197.883 278.997 197.894 278.988 197.902 278.978L219.962 266.262L220.909 295.168L221.584 315.945L222.22 335.331Z" fill="#3F3D56"/>
<path d="M301.764 338.739L308.207 353.725L310.456 358.945L316.512 393.421L319.535 396.912L322.139 384.527L323.363 384.254L345.433 379.285L351.866 401.495C353.316 398.868 353.887 395.779 353.483 392.747C353.079 389.716 351.725 386.93 349.649 384.859C349.209 384.427 348.843 384.006 348.854 383.608C349.22 359.627 347.871 315.838 335.685 297.815C331.815 292.095 329.493 286.399 326.114 282.419C326.104 282.407 326.104 282.396 326.093 282.396L317.872 267.762L317.37 266.863L316.805 266.556L301.764 338.739Z" fill="#3F3D56"/>
<path d="M262.731 230.445C279.464 230.445 293.029 215.699 293.029 197.509C293.029 179.318 279.464 164.572 262.731 164.572C245.998 164.572 232.434 179.318 232.434 197.509C232.434 215.699 245.998 230.445 262.731 230.445Z" fill="#FFB6B6"/>
<path d="M303.682 174.503C303.447 174.23 303.164 174.011 302.85 173.86C302.535 173.709 302.196 173.628 301.853 173.623L302.308 172.248C302.457 171.815 302.497 171.347 302.425 170.891C302.352 170.436 302.169 170.01 301.895 169.656C301.621 169.303 301.266 169.035 300.865 168.88C300.465 168.725 300.034 168.688 299.616 168.774L297.957 169.121L298.113 167.917C298.173 167.468 298.124 167.01 297.972 166.588C297.82 166.165 297.569 165.794 297.245 165.509C296.92 165.224 296.533 165.036 296.121 164.963C295.71 164.89 295.288 164.935 294.897 165.093C294.541 165.245 294.159 165.309 293.778 165.279C293.396 165.25 293.026 165.128 292.694 164.923C292.36 164.724 292.071 164.448 291.845 164.115C291.62 163.782 291.464 163.399 291.388 162.994L290.81 159.963L290.749 159.8C287.934 154.7 282.522 150.989 275.899 149.629C270.004 148.41 263.959 149.031 258.132 149.614C255.82 149.851 253.209 150.117 251.033 151.566C249.184 152.808 247.62 155.291 247.939 157.797C242.194 155.883 236.033 159.704 232.98 164.524C229.363 170.26 228.771 177.445 228.676 183.062C228.418 196.353 230.941 207.226 236.156 215.387C236.537 215.978 236.632 217.212 237.386 217.626L237.23 217.353C238.073 217.811 238.93 218.55 238.61 219.341C237.692 221.618 243.792 226.652 248.089 228.315C255.929 231.353 266.352 231.094 273.682 230L273.941 228.115C276.586 227.723 278.449 226.977 278.972 225.809C279.897 224.951 280.686 224.183 281.373 223.473L281.379 223.466C281.393 223.451 281.42 223.429 281.434 223.414C284.745 219.962 285.513 217.996 285.86 215.002C286.193 212.068 285.602 209.089 284.997 206.406C297.739 208.549 279.979 191.652 291.851 188.384C291.987 188.339 292.125 188.302 292.265 188.273C292.612 188.185 292.959 188.096 293.292 187.993C294.898 187.519 296.436 186.805 297.861 185.871C301.18 183.676 302.274 180.763 303.988 177.482C304.235 177.014 304.339 176.473 304.284 175.938C304.229 175.402 304.018 174.899 303.682 174.503Z" fill="#2F2E41"/>
<path d="M369.889 341.084C369.882 342.377 369.868 344.188 369.814 346.428C369.807 346.738 369.8 347.056 369.794 347.381C369.705 351.499 369.617 354.951 369.474 358.787C369.467 359.053 369.46 359.312 369.447 359.578C369.256 364.929 368.957 371.161 368.44 381.029C367.482 399.257 365.809 383.535 364.13 389.928C364.048 390.246 363.96 390.623 363.878 391.067C363.624 392.676 363.195 394.247 362.6 395.746C361.709 396.322 360.791 396.877 359.887 397.431C357.31 398.991 354.692 400.491 352.054 401.918C350.571 402.716 349.082 403.5 347.586 404.254C347.348 404.372 347.117 404.49 346.886 404.601C339.226 408.453 331.331 411.728 323.258 414.403C321.68 414.92 320.109 415.423 318.518 415.888C316.859 416.391 315.2 416.864 313.521 417.308C301.027 420.642 288.242 422.523 275.382 422.918C273.648 422.977 271.901 422.999 270.147 422.999C269.276 422.999 268.42 422.992 267.549 422.984C267.284 422.984 267.019 422.977 266.754 422.97C265.985 422.948 265.19 422.933 264.387 422.911C248.87 422.384 233.479 419.694 218.593 414.905L217.96 414.706C216.981 414.38 216.009 414.063 215.036 413.723C210.549 412.178 206.127 410.448 201.771 408.534C198.446 407.077 195.159 405.515 191.911 403.847C191.882 403.838 191.854 403.823 191.83 403.803C191.15 403.463 190.463 403.108 189.783 402.746C189.695 402.694 189.599 402.642 189.504 402.591C186.968 401.245 184.459 399.836 181.977 398.362C179.89 393.151 176.952 392.153 175.13 387.57C174.6 386.209 174.216 384.785 173.988 383.328C173.988 383.313 173.981 383.298 173.981 383.276C174.171 386.026 173.172 378.397 173.974 383.246C173.967 383.158 173.961 383.061 173.954 382.951C173.933 382.685 173.906 382.359 173.865 381.953C171.533 357.198 171.683 328.887 170.67 305.559C170.602 304.051 170.531 302.607 170.459 301.227C170.438 300.769 170.411 300.318 170.384 299.874C170.432 299.741 170.486 299.601 170.547 299.468C170.56 299.43 170.576 299.393 170.595 299.357C170.615 299.311 170.638 299.267 170.663 299.224C170.676 299.202 170.697 299.172 170.71 299.15C170.72 299.125 170.732 299.1 170.744 299.076C170.806 298.973 170.874 298.862 170.948 298.758C170.982 298.714 171.01 298.677 171.044 298.64C171.067 298.602 171.094 298.568 171.125 298.537C171.146 298.501 171.171 298.469 171.2 298.44C171.227 298.411 171.254 298.374 171.288 298.337C171.303 298.314 171.321 298.294 171.343 298.278C171.397 298.211 171.456 298.149 171.52 298.093C171.762 297.85 172.021 297.628 172.295 297.428C172.39 297.361 172.492 297.295 172.587 297.221C173.272 296.775 173.994 296.399 174.742 296.097C175.001 295.994 175.259 295.898 175.538 295.794C175.64 295.765 175.735 295.728 175.837 295.691C175.987 295.639 176.136 295.587 176.293 295.55C177.068 295.299 177.904 295.085 178.809 294.885C178.917 294.863 179.033 294.841 179.149 294.811C179.312 294.774 179.482 294.745 179.652 294.715C179.883 294.671 180.121 294.626 180.359 294.582C182.378 294.235 184.67 293.976 187.199 293.806C187.437 293.791 187.675 293.776 187.913 293.762C188.192 293.747 188.471 293.732 188.756 293.717C188.994 293.702 189.239 293.695 189.484 293.688C189.722 293.673 189.967 293.665 190.218 293.658C190.905 293.636 191.612 293.614 192.333 293.599C194.386 293.555 196.549 293.569 198.82 293.621C199.874 293.651 200.948 293.68 202.049 293.732C202.124 293.732 202.192 293.739 202.26 293.739C203.219 293.776 204.184 293.821 205.177 293.88C205.871 293.917 206.571 293.954 207.271 293.998C207.931 294.042 208.597 294.087 209.27 294.139C209.794 294.168 210.318 294.212 210.848 294.249C211.297 294.286 211.745 294.323 212.194 294.353L212.806 294.397C213.139 294.427 213.473 294.449 213.813 294.486C214.56 294.552 215.308 294.619 216.07 294.685C216.825 294.759 217.593 294.833 218.361 294.907C219.13 294.981 219.905 295.062 220.68 295.144C220.762 295.151 220.836 295.159 220.911 295.166C221.618 295.247 222.326 295.321 223.039 295.402C223.203 295.417 223.373 295.432 223.536 295.454C224.217 295.529 224.911 295.616 225.597 295.695C225.808 295.72 226.018 295.744 226.229 295.769C226.768 295.832 227.298 295.888 227.84 295.957C228.554 296.046 229.281 296.127 229.989 296.23C230.539 296.297 231.09 296.363 231.641 296.437C232.504 296.548 233.381 296.666 234.259 296.792C234.592 296.836 234.925 296.881 235.258 296.933C237.76 297.273 240.29 297.65 242.86 298.041C246.756 298.64 250.713 299.291 254.698 299.993C258.689 300.695 262.703 301.437 266.74 302.218C267.76 302.417 268.78 302.617 269.807 302.824C270.269 302.92 270.731 303.016 271.194 303.112C271.982 303.267 272.771 303.43 273.56 303.593C274.349 303.755 275.137 303.918 275.926 304.088C276.864 304.287 277.81 304.487 278.748 304.687C284.929 306.017 291.075 307.436 297.073 308.922C298.059 309.166 299.044 309.417 300.024 309.661C301.982 310.156 303.922 310.659 305.844 311.169C306.374 311.302 306.898 311.443 307.421 311.583C308.727 311.938 310.033 312.293 311.318 312.655L311.542 312.721C312.487 312.973 313.412 313.231 314.337 313.498C316.519 314.118 318.666 314.747 320.776 315.382C322.176 315.804 323.561 316.23 324.93 316.661C326.977 317.304 328.983 317.955 330.934 318.613C331.417 318.775 331.9 318.938 332.376 319.093C333.804 319.574 335.211 320.061 336.578 320.549C337.666 320.934 338.726 321.325 339.774 321.717C340.821 322.109 341.847 322.501 342.854 322.892C343.5 323.144 344.139 323.41 344.778 323.661C345.696 324.031 346.6 324.4 347.484 324.77C347.756 324.881 348.021 324.999 348.287 325.11C348.457 325.191 348.62 325.258 348.783 325.332C349.103 325.472 349.429 325.605 349.742 325.746C350.061 325.879 350.374 326.019 350.687 326.167C350.993 326.3 351.306 326.44 351.605 326.581C351.911 326.714 352.21 326.854 352.509 327.002C352.761 327.113 353.005 327.231 353.243 327.35C353.726 327.579 354.209 327.808 354.678 328.045C354.909 328.163 355.141 328.274 355.372 328.392L355.902 328.658C355.977 328.702 356.052 328.739 356.126 328.776C356.296 328.865 356.473 328.961 356.643 329.05C357.038 329.249 357.425 329.464 357.806 329.663C358.316 329.944 358.812 330.225 359.288 330.499C359.771 330.779 360.24 331.06 360.689 331.334C360.764 331.378 360.832 331.423 360.907 331.467C361.009 331.526 361.111 331.593 361.213 331.652C361.559 331.866 361.892 332.088 362.226 332.302C362.878 332.738 363.497 333.167 364.075 333.596C364.204 333.692 364.327 333.788 364.456 333.877C364.884 334.209 365.292 334.534 365.673 334.867C365.673 334.874 365.673 334.874 365.68 334.874C365.809 334.978 365.931 335.089 366.054 335.192C366.156 335.296 366.265 335.385 366.367 335.488C366.72 335.821 367.046 336.138 367.346 336.464C367.446 336.564 367.541 336.67 367.631 336.782C367.671 336.817 367.707 336.857 367.74 336.9C367.876 337.048 367.998 337.195 368.114 337.343C368.132 337.364 368.148 337.386 368.162 337.41C368.325 337.617 368.474 337.824 368.617 338.031C368.685 338.134 368.76 338.238 368.821 338.341C368.903 338.467 368.984 338.6 369.052 338.726C369.114 338.829 369.168 338.94 369.222 339.043C369.367 339.31 369.49 339.589 369.59 339.879C369.666 340.075 369.727 340.278 369.773 340.485C369.825 340.681 369.863 340.881 369.889 341.084Z" fill="#2F2E41"/>
<path opacity="0.2" d="M369.889 341.084C369.882 342.377 369.868 344.188 369.814 346.428C369.807 346.738 369.794 347.056 369.787 347.381C369.719 350.523 369.617 354.404 369.474 358.787C369.467 359.053 369.46 359.312 369.447 359.578C369.256 364.93 368.957 371.161 368.44 381.029C367.482 399.257 365.809 383.535 364.13 389.928C359.465 386.809 354.352 383.542 348.885 380.186C347.899 379.58 346.904 378.971 345.9 378.36C334.966 371.73 322.754 364.782 310.005 357.9C309.502 357.626 308.992 357.353 308.489 357.087C279.285 341.394 247.409 326.13 221.584 315.944C216.6 313.978 211.841 312.204 207.367 310.644C197.942 307.37 189.797 305.078 183.527 304.088C177 303.053 172.492 303.423 170.67 305.559C170.602 304.051 170.531 302.607 170.459 301.227C170.432 300.769 170.404 300.318 170.377 299.874C170.419 299.753 170.474 299.637 170.526 299.52C170.534 299.502 170.539 299.485 170.547 299.468C170.56 299.43 170.576 299.393 170.595 299.357C170.615 299.311 170.638 299.267 170.663 299.224C170.685 299.172 170.712 299.122 170.744 299.076C170.806 298.973 170.874 298.862 170.948 298.758C171.003 298.681 171.062 298.607 171.125 298.537C171.146 298.501 171.171 298.469 171.2 298.44C171.227 298.411 171.254 298.374 171.288 298.337C171.303 298.314 171.321 298.294 171.343 298.278C171.396 298.211 171.456 298.149 171.519 298.093C171.762 297.85 172.021 297.628 172.295 297.428C172.39 297.361 172.492 297.295 172.587 297.221C173.272 296.775 173.994 296.399 174.742 296.097C175.001 295.994 175.259 295.898 175.538 295.794C175.64 295.765 175.735 295.728 175.837 295.691C175.987 295.639 176.136 295.587 176.293 295.55C177.068 295.299 177.904 295.085 178.809 294.885C179.081 294.826 179.366 294.767 179.652 294.715C179.883 294.671 180.121 294.626 180.359 294.582C182.378 294.235 184.67 293.976 187.199 293.806C187.437 293.791 187.675 293.776 187.913 293.761C188.192 293.747 188.471 293.732 188.756 293.717C188.994 293.702 189.239 293.695 189.484 293.688C189.722 293.673 189.967 293.665 190.218 293.658C190.905 293.636 191.612 293.614 192.333 293.599C194.386 293.562 196.549 293.577 198.82 293.628C199.873 293.651 200.948 293.688 202.049 293.739C202.117 293.739 202.192 293.747 202.26 293.747C203.219 293.776 204.191 293.828 205.177 293.88C205.871 293.917 206.571 293.954 207.271 293.998C207.931 294.042 208.597 294.087 209.27 294.138C209.794 294.168 210.318 294.212 210.848 294.249C211.297 294.286 211.745 294.323 212.194 294.353C212.731 294.397 213.269 294.442 213.812 294.486C214.56 294.552 215.308 294.619 216.07 294.685C216.825 294.759 217.593 294.833 218.361 294.907C219.13 294.981 219.905 295.062 220.68 295.144C220.762 295.151 220.836 295.159 220.911 295.166C221.618 295.247 222.325 295.321 223.039 295.402C226.997 295.839 231.07 296.349 235.258 296.933C237.76 297.28 240.294 297.652 242.86 298.049C246.756 298.647 250.714 299.298 254.698 299.993C258.689 300.695 262.703 301.437 266.74 302.218C267.76 302.417 268.78 302.617 269.807 302.824C271.058 303.075 272.309 303.331 273.56 303.593C274.349 303.755 275.137 303.918 275.926 304.088C276.864 304.287 277.81 304.487 278.748 304.687C284.929 306.017 291.075 307.436 297.073 308.922C298.059 309.166 299.044 309.417 300.024 309.661C301.982 310.156 303.922 310.659 305.844 311.169C306.374 311.31 306.898 311.45 307.422 311.59C308.734 311.945 310.033 312.3 311.318 312.655V312.662C311.392 312.677 311.467 312.699 311.542 312.721C312.48 312.98 313.412 313.239 314.337 313.505C316.519 314.126 318.666 314.752 320.776 315.382C322.176 315.811 323.564 316.232 324.93 316.661C326.977 317.312 328.983 317.962 330.934 318.613C331.417 318.775 331.9 318.938 332.376 319.093C333.804 319.581 335.204 320.066 336.578 320.549C337.666 320.934 338.727 321.325 339.774 321.717C340.821 322.109 341.847 322.501 342.854 322.892C343.507 323.144 344.146 323.402 344.778 323.654C345.703 324.023 346.6 324.393 347.484 324.77C347.756 324.881 348.021 324.999 348.287 325.11C348.783 325.317 349.266 325.531 349.742 325.746C350.061 325.879 350.374 326.019 350.687 326.167C350.993 326.3 351.306 326.441 351.605 326.581C351.911 326.714 352.21 326.854 352.509 327.002C352.761 327.113 353.006 327.231 353.244 327.35C353.726 327.579 354.209 327.808 354.678 328.045C354.909 328.163 355.141 328.274 355.372 328.392L355.902 328.658C355.977 328.702 356.052 328.739 356.126 328.776C356.704 329.072 357.262 329.368 357.806 329.663C358.316 329.944 358.812 330.225 359.288 330.499C359.853 330.824 360.39 331.142 360.907 331.467C361.009 331.526 361.111 331.593 361.213 331.652C361.559 331.866 361.892 332.088 362.226 332.302C362.878 332.738 363.497 333.167 364.075 333.596C364.646 334.024 365.177 334.446 365.673 334.867C365.673 334.875 365.673 334.874 365.68 334.874C365.918 335.081 366.149 335.288 366.367 335.488C366.72 335.821 367.047 336.138 367.346 336.464C367.446 336.564 367.541 336.67 367.631 336.782C367.671 336.817 367.707 336.857 367.74 336.9C367.883 337.07 368.026 337.24 368.162 337.41C368.325 337.617 368.474 337.824 368.617 338.031C368.685 338.134 368.76 338.238 368.821 338.341C368.903 338.467 368.984 338.6 369.052 338.726C369.114 338.829 369.168 338.94 369.222 339.043C369.367 339.31 369.49 339.589 369.59 339.879C369.664 340.076 369.725 340.278 369.773 340.485C369.825 340.681 369.863 340.881 369.889 341.084Z" fill="black"/>
</g>
<defs>
<clipPath id="clip0_107_2">
<rect width="535" height="423" fill="white"/>
</clipPath>
</defs>
</svg>
